<svg xmlns="http://www.w3.org/2000/svg" xmlns:xlink="http://www.w3.org/1999/xlink" contentStyleType="text/css" height="410px" preserveAspectRatio="none" style="width:355px;height:410px;background:#FFFFFF;" version="1.1" viewBox="0 0 355 410" width="355px" zoomAndPan="magnify"><defs/><g><!--class User--><g id="elem_User"><rect codeLine="1" fill="#F1F1F1" height="80.5938" id="User" rx="2.5" ry="2.5" style="stroke:#181818;stroke-width:0.5;" width="133.1875" x="109.93" y="7"/><ellipse cx="156.3187" cy="23" fill="#ADD1B2" rx="11" ry="11" style="stroke:#181818;stroke-width:1.0;"/><path d="M159.2874,28.6406 Q158.7093,28.9375 158.0687,29.0781 Q157.428,29.2344 156.7249,29.2344 Q154.2249,29.2344 152.8968,27.5938 Q151.5843,25.9375 151.5843,22.8125 Q151.5843,19.6875 152.8968,18.0313 Q154.2249,16.375 156.7249,16.375 Q157.428,16.375 158.0687,16.5313 Q158.7249,16.6875 159.2874,16.9844 L159.2874,19.7031 Q158.6624,19.125 158.0687,18.8594 Q157.4749,18.5781 156.8499,18.5781 Q155.5062,18.5781 154.8187,19.6563 Q154.1312,20.7188 154.1312,22.8125 Q154.1312,24.9063 154.8187,25.9844 Q155.5062,27.0469 156.8499,27.0469 Q157.4749,27.0469 158.0687,26.7813 Q158.6624,26.5 159.2874,25.9219 L159.2874,28.6406 Z " fill="#000000"/><text fill="#000000" font-family="sans-serif" font-size="14" lengthAdjust="spacing" textLength="31.9102" x="176.8187" y="27.8467">User</text><line style="stroke:#181818;stroke-width:0.5;" x1="110.93" x2="242.1175" y1="39" y2="39"/><text fill="#000000" font-family="sans-serif" font-size="14" lengthAdjust="spacing" textLength="121.1875" x="115.93" y="55.9951">username: String</text><text fill="#000000" font-family="sans-serif" font-size="14" lengthAdjust="spacing" textLength="89.5576" x="115.93" y="72.292">email: String</text><line style="stroke:#181818;stroke-width:0.5;" x1="110.93" x2="242.1175" y1="79.5938" y2="79.5938"/></g><!--class Poll--><g id="elem_Poll"><rect codeLine="5" fill="#F1F1F1" height="96.8906" id="Poll" rx="2.5" ry="2.5" style="stroke:#181818;stroke-width:0.5;" width="153.0527" x="7" y="164.6"/><ellipse cx="66.8828" cy="180.6" fill="#ADD1B2" rx="11" ry="11" style="stroke:#181818;stroke-width:1.0;"/><path d="M69.8516,186.2406 Q69.2734,186.5375 68.6328,186.6781 Q67.9922,186.8344 67.2891,186.8344 Q64.7891,186.8344 63.4609,185.1938 Q62.1484,183.5375 62.1484,180.4125 Q62.1484,177.2875 63.4609,175.6313 Q64.7891,173.975 67.2891,173.975 Q67.9922,173.975 68.6328,174.1313 Q69.2891,174.2875 69.8516,174.5844 L69.8516,177.3031 Q69.2266,176.725 68.6328,176.4594 Q68.0391,176.1781 67.4141,176.1781 Q66.0703,176.1781 65.3828,177.2563 Q64.6953,178.3188 64.6953,180.4125 Q64.6953,182.5063 65.3828,183.5844 Q66.0703,184.6469 67.4141,184.6469 Q68.0391,184.6469 68.6328,184.3813 Q69.2266,184.1 69.8516,183.5219 L69.8516,186.2406 Z " fill="#000000"/><text fill="#000000" font-family="sans-serif" font-size="14" lengthAdjust="spacing" textLength="24.7871" x="87.3828" y="185.4467">Poll</text><line style="stroke:#181818;stroke-width:0.5;" x1="8" x2="159.0527" y1="196.6" y2="196.6"/><text fill="#000000" font-family="sans-serif" font-size="14" lengthAdjust="spacing" textLength="111.4326" x="13" y="213.5951">question: String</text><text fill="#000000" font-family="sans-serif" font-size="14" lengthAdjust="spacing" textLength="141.0527" x="13" y="229.892">publishedAt: Instant</text><text fill="#000000" font-family="sans-serif" font-size="14" lengthAdjust="spacing" textLength="123.8125" x="13" y="246.1889">validUntil: Instant</text><line style="stroke:#181818;stroke-width:0.5;" x1="8" x2="159.0527" y1="253.4906" y2="253.4906"/></g><!--class VoteOption--><g id="elem_VoteOption"><rect codeLine="10" fill="#F1F1F1" height="80.5938" id="VoteOption" rx="2.5" ry="2.5" style="stroke:#181818;stroke-width:0.5;" width="168.3721" x="92.34" y="322.49"/><ellipse cx="133.1715" cy="338.49" fill="#ADD1B2" rx="11" ry="11" style="stroke:#181818;stroke-width:1.0;"/><path d="M136.1402,344.1306 Q135.5621,344.4275 134.9215,344.5681 Q134.2809,344.7244 133.5777,344.7244 Q131.0777,344.7244 129.7496,343.0837 Q128.4371,341.4275 128.4371,338.3025 Q128.4371,335.1775 129.7496,333.5212 Q131.0777,331.865 133.5777,331.865 Q134.2809,331.865 134.9215,332.0212 Q135.5777,332.1775 136.1402,332.4744 L136.1402,335.1931 Q135.5152,334.615 134.9215,334.3494 Q134.3277,334.0681 133.7027,334.0681 Q132.359,334.0681 131.6715,335.1462 Q130.984,336.2087 130.984,338.3025 Q130.984,340.3962 131.6715,341.4744 Q132.359,342.5369 133.7027,342.5369 Q134.3277,342.5369 134.9215,342.2712 Q135.5152,341.99 136.1402,341.4119 L136.1402,344.1306 Z " fill="#000000"/><text fill="#000000" font-family="sans-serif" font-size="14" lengthAdjust="spacing" textLength="78.9688" x="152.9118" y="343.3367">VoteOption</text><line style="stroke:#181818;stroke-width:0.5;" x1="93.34" x2="259.7121" y1="354.49" y2="354.49"/><text fill="#000000" font-family="sans-serif" font-size="14" lengthAdjust="spacing" textLength="102.9287" x="98.34" y="371.4851">caption: String</text><text fill="#000000" font-family="sans-serif" font-size="14" lengthAdjust="spacing" textLength="156.3721" x="98.34" y="387.782">presentationOrder: int</text><line style="stroke:#181818;stroke-width:0.5;" x1="93.34" x2="259.7121" y1="395.0837" y2="395.0837"/></g><!--class Vote--><g id="elem_Vote"><rect codeLine="14" fill="#F1F1F1" height="64.2969" id="Vote" rx="2.5" ry="2.5" style="stroke:#181818;stroke-width:0.5;" width="153.0527" x="195" y="180.89"/><ellipse cx="251.1538" cy="196.89" fill="#ADD1B2" rx="11" ry="11" style="stroke:#181818;stroke-width:1.0;"/><path d="M254.1226,202.5306 Q253.5444,202.8275 252.9038,202.9681 Q252.2632,203.1244 251.5601,203.1244 Q249.0601,203.1244 247.7319,201.4838 Q246.4194,199.8275 246.4194,196.7025 Q246.4194,193.5775 247.7319,191.9213 Q249.0601,190.265 251.5601,190.265 Q252.2632,190.265 252.9038,190.4213 Q253.5601,190.5775 254.1226,190.8744 L254.1226,193.5931 Q253.4976,193.015 252.9038,192.7494 Q252.3101,192.4681 251.6851,192.4681 Q250.3413,192.4681 249.6538,193.5463 Q248.9663,194.6088 248.9663,196.7025 Q248.9663,198.7963 249.6538,199.8744 Q250.3413,200.9369 251.6851,200.9369 Q252.3101,200.9369 252.9038,200.6713 Q253.4976,200.39 254.1226,199.8119 L254.1226,202.5306 Z " fill="#000000"/><text fill="#000000" font-family="sans-serif" font-size="14" lengthAdjust="spacing" textLength="32.2451" x="271.6538" y="201.7367">Vote</text><line style="stroke:#181818;stroke-width:0.5;" x1="196" x2="347.0527" y1="212.89" y2="212.89"/><text fill="#000000" font-family="sans-serif" font-size="14" lengthAdjust="spacing" textLength="141.0527" x="201" y="229.8851">publishedAt: Instant</text><line style="stroke:#181818;stroke-width:0.5;" x1="196" x2="347.0527" y1="237.1869" y2="237.1869"/></g><!--link User to Vote--><g id="link_User_Vote"><path codeLine="17" d="M205.5444,98.3182 C222.0244,126.7082 234.8789,148.8703 250.1789,175.2403 " fill="none" id="User-Vote" style="stroke:#181818;stroke-width:1.0;"/><polygon fill="#181818" points="199.52,87.94,199.0728,95.1372,205.5444,98.3182,205.9916,91.121,199.52,87.94" style="stroke:#181818;stroke-width:1.0;"/><polygon fill="#181818" points="253.19,180.43,252.1332,170.638,250.6807,176.1052,245.2135,174.6528,253.19,180.43" style="stroke:#181818;stroke-width:1.0;"/><text fill="#000000" font-family="sans-serif" font-size="13" lengthAdjust="spacing" textLength="36.9941" x="224.53" y="130.6669">voted</text><text fill="#000000" font-family="sans-serif" font-size="13" lengthAdjust="spacing" textLength="23.0356" x="224.5058" y="169.8639">0..*</text></g><!--link Poll to VoteOption--><g id="link_Poll_VoteOption"><path codeLine="18" d="M119.8531,271.7552 C132.1731,291.3252 136.6936,298.5023 148.4336,317.1523 " fill="none" id="Poll-VoteOption" style="stroke:#181818;stroke-width:1.0;"/><polygon fill="#181818" points="113.46,261.6,113.2715,268.8086,119.8531,271.7552,120.0416,264.5466,113.46,261.6" style="stroke:#181818;stroke-width:1.0;"/><polygon fill="#181818" points="151.63,322.23,150.2206,312.4825,148.9664,317.9986,143.4503,316.7443,151.63,322.23" style="stroke:#181818;stroke-width:1.0;"/><text fill="#000000" font-family="sans-serif" font-size="13" lengthAdjust="spacing" textLength="23.0356" x="122.6049" y="311.3485">2..*</text></g><!--link Vote to VoteOption--><g id="link_Vote_VoteOption"><path codeLine="19" d="M251.38,245.37 C237,267.74 220.795,292.9432 205.325,317.0032 " fill="none" id="Vote-to-VoteOption" style="stroke:#181818;stroke-width:1.0;"/><polygon fill="#181818" points="202.08,322.05,210.312,316.6431,204.7841,317.8443,203.5829,312.3165,202.08,322.05" style="stroke:#181818;stroke-width:1.0;"/><text fill="#000000" font-family="sans-serif" font-size="13" lengthAdjust="spacing" textLength="23.0356" x="222.1531" y="265.2918">0..*</text><text fill="#000000" font-family="sans-serif" font-size="13" lengthAdjust="spacing" textLength="24.8066" x="180.3044" y="311.4397">1..1</text></g><!--link User to Poll--><g id="link_User_Poll"><path codeLine="20" d="M148.0847,98.3751 C135.0247,121.3751 127.3743,134.8434 113.5943,159.0934 " fill="none" id="User-Poll" style="stroke:#181818;stroke-width:1.0;"/><polygon fill="#181818" points="154.01,87.94,147.569,91.1824,148.0847,98.3751,154.5257,95.1326,154.01,87.94" style="stroke:#181818;stroke-width:1.0;"/><polygon fill="#181818" points="110.63,164.31,118.5542,158.4613,113.1003,159.9628,111.5987,154.5089,110.63,164.31" style="stroke:#181818;stroke-width:1.0;"/><text fill="#000000" font-family="sans-serif" font-size="13" lengthAdjust="spacing" textLength="49.8037" x="137.53" y="130.6669">created</text><text fill="#000000" font-family="sans-serif" font-size="13" lengthAdjust="spacing" textLength="23.0356" x="89.8268" y="153.4781">0..*</text></g><!--SRC=[TP0_3u8m4CLtFyM5aOH673kOE3fXOd2lxKMRb89jmS7mtQM5D3L2X_vxxtxlSbmnQw6sQE2pWsNrqrEp1YbSdP7w4GLic5G_lwFVmeq7qgLLAY6zUhHEjlgFrFLt9UqJnSbHE6lhc7PH79YIejREPwNQc0JTMeTLvzb976VTUff1YzenBrP6eA4WDvW9RRF7kIOCBI-A8sHxGl9iBgSmJ8S8ZZ2Cl13jMtlN8RgMneCfL2s4Q2q9ALFhUc3WK-06sHJv1G00]--></g></svg>