<svg xmlns="http://www.w3.org/2000/svg" xmlns:xlink="http://www.w3.org/1999/xlink" contentStyleType="text/css" height="533px" preserveAspectRatio="none" style="width:574px;height:533px;background:#FFFFFF;" version="1.1" viewBox="0 0 574 533" width="574px" zoomAndPan="magnify"><defs/><g><!--cluster FeedApp--><g id="cluster_FeedApp"><polygon fill="none" points="16,16,26,6,192,6,192,417.18,182,427.18,16,427.18,16,16" style="stroke:#181818;stroke-width:1.0;"/><line style="stroke:#181818;stroke-width:1.0;" x1="182" x2="192" y1="16" y2="6"/><line style="stroke:#181818;stroke-width:1.0;" x1="16" x2="182" y1="16" y2="16"/><line style="stroke:#181818;stroke-width:1.0;" x1="182" x2="182" y1="16" y2="427.18"/><text fill="#000000" font-family="sans-serif" font-size="14" font-weight="bold" lengthAdjust="spacing" textLength="69.4531" x="65.2734" y="31.9951">FeedApp</text></g><!--cluster Analytics Component--><g id="cluster_Analytics Component"><polygon fill="none" points="314,334.89,324,324.89,557,324.89,557,417.18,547,427.18,314,427.18,314,334.89" style="stroke:#181818;stroke-width:1.0;"/><line style="stroke:#181818;stroke-width:1.0;" x1="547" x2="557" y1="334.89" y2="324.89"/><line style="stroke:#181818;stroke-width:1.0;" x1="314" x2="547" y1="334.89" y2="334.89"/><line style="stroke:#181818;stroke-width:1.0;" x1="547" x2="547" y1="334.89" y2="427.18"/><text fill="#000000" font-family="sans-serif" font-size="14" font-weight="bold" lengthAdjust="spacing" textLength="167.4121" x="347.7939" y="350.8851">Analytics Component</text></g><!--entity API--><g id="elem_API"><rect fill="#F1F1F1" height="46.2969" rx="2.5" ry="2.5" style="stroke:#181818;stroke-width:0.5;" width="62.1484" x="92.93" y="152.29"/><rect fill="#F1F1F1" height="10" style="stroke:#181818;stroke-width:0.5;" width="15" x="135.0784" y="157.29"/><rect fill="#F1F1F1" height="2" style="stroke:#181818;stroke-width:0.5;" width="4" x="133.0784" y="159.29"/><rect fill="#F1F1F1" height="2" style="stroke:#181818;stroke-width:0.5;" width="4" x="133.0784" y="163.29"/><text fill="#000000" font-family="sans-serif" font-size="14" lengthAdjust="spacing" textLength="22.1484" x="107.93" y="185.2851">API</text></g><!--entity HTTP--><g id="elem_HTTP"><ellipse cx="166" cy="69.14" fill="#F1F1F1" rx="8" ry="8" style="stroke:#181818;stroke-width:0.5;"/><text fill="#000000" font-family="sans-serif" font-size="14" lengthAdjust="spacing" textLength="36.0732" x="147.9634" y="99.1351">HTTP</text></g><!--entity Business Logic--><g id="elem_Business Logic"><rect fill="#F1F1F1" height="46.2969" rx="2.5" ry="2.5" style="stroke:#181818;stroke-width:0.5;" width="143.0244" x="32.49" y="258.59"/><rect fill="#F1F1F1" height="10" style="stroke:#181818;stroke-width:0.5;" width="15" x="155.5144" y="263.59"/><rect fill="#F1F1F1" height="2" style="stroke:#181818;stroke-width:0.5;" width="4" x="153.5144" y="265.59"/><rect fill="#F1F1F1" height="2" style="stroke:#181818;stroke-width:0.5;" width="4" x="153.5144" y="269.59"/><text fill="#000000" font-family="sans-serif" font-size="14" lengthAdjust="spacing" textLength="103.0244" x="47.49" y="291.5851">Business Logic</text></g><!--entity Persistence--><g id="elem_Persistence"><rect fill="#F1F1F1" height="46.2969" rx="2.5" ry="2.5" style="stroke:#181818;stroke-width:0.5;" width="120.5752" x="43.71" y="364.89"/><rect fill="#F1F1F1" height="10" style="stroke:#181818;stroke-width:0.5;" width="15" x="144.2852" y="369.89"/><rect fill="#F1F1F1" height="2" style="stroke:#181818;stroke-width:0.5;" width="4" x="142.2852" y="371.89"/><rect fill="#F1F1F1" height="2" style="stroke:#181818;stroke-width:0.5;" width="4" x="142.2852" y="375.89"/><text fill="#000000" font-family="sans-serif" font-size="14" lengthAdjust="spacing" textLength="80.5752" x="58.71" y="397.8851">Persistence</text></g><!--entity Web UI--><g id="elem_Web UI"><rect fill="#F1F1F1" height="46.2969" rx="2.5" ry="2.5" style="stroke:#181818;stroke-width:0.5;" width="90.1689" x="31.92" y="46"/><rect fill="#F1F1F1" height="10" style="stroke:#181818;stroke-width:0.5;" width="15" x="102.0889" y="51"/><rect fill="#F1F1F1" height="2" style="stroke:#181818;stroke-width:0.5;" width="4" x="100.0889" y="53"/><rect fill="#F1F1F1" height="2" style="stroke:#181818;stroke-width:0.5;" width="4" x="100.0889" y="57"/><text fill="#000000" font-family="sans-serif" font-size="14" lengthAdjust="spacing" textLength="50.1689" x="46.92" y="78.9951">Web UI</text></g><!--entity Poll Aggregator--><g id="elem_Poll Aggregator"><rect fill="#F1F1F1" height="46.2969" rx="2.5" ry="2.5" style="stroke:#181818;stroke-width:0.5;" width="148.2334" x="330.88" y="364.89"/><rect fill="#F1F1F1" height="10" style="stroke:#181818;stroke-width:0.5;" width="15" x="459.1134" y="369.89"/><rect fill="#F1F1F1" height="2" style="stroke:#181818;stroke-width:0.5;" width="4" x="457.1134" y="371.89"/><rect fill="#F1F1F1" height="2" style="stroke:#181818;stroke-width:0.5;" width="4" x="457.1134" y="375.89"/><text fill="#000000" font-family="sans-serif" font-size="14" lengthAdjust="spacing" textLength="108.2334" x="345.88" y="397.8851">Poll Aggregator</text></g><!--entity db--><g id="elem_db"><path d="M53.62,481.18 C53.62,471.18 103.9965,471.18 103.9965,471.18 C103.9965,471.18 154.3729,471.18 154.3729,481.18 L154.3729,506.4769 C154.3729,516.4769 103.9965,516.4769 103.9965,516.4769 C103.9965,516.4769 53.62,516.4769 53.62,506.4769 L53.62,481.18 " fill="#F1F1F1" style="stroke:#181818;stroke-width:0.5;"/><path d="M53.62,481.18 C53.62,491.18 103.9965,491.18 103.9965,491.18 C103.9965,491.18 154.3729,491.18 154.3729,481.18 " fill="none" style="stroke:#181818;stroke-width:0.5;"/><text fill="#000000" font-family="sans-serif" font-size="14" lengthAdjust="spacing" textLength="80.7529" x="63.62" y="508.1751">PostgreSQL</text></g><!--entity q--><g id="elem_q"><path d="M212.72,374.89 L291.2776,374.89 C296.2776,374.89 296.2776,388.0384 296.2776,388.0384 C296.2776,388.0384 296.2776,401.1869 291.2776,401.1869 L212.72,401.1869 C207.72,401.1869 207.72,388.0384 207.72,388.0384 C207.72,388.0384 207.72,374.89 212.72,374.89 " fill="#F1F1F1" style="stroke:#181818;stroke-width:0.5;"/><path d="M291.2776,374.89 C286.2776,374.89 286.2776,388.0384 286.2776,388.0384 C286.2776,401.1869 291.2776,401.1869 291.2776,401.1869 " fill="none" style="stroke:#181818;stroke-width:0.5;"/><text fill="#000000" font-family="sans-serif" font-size="14" lengthAdjust="spacing" textLength="68.5576" x="212.72" y="392.8851">RabbitMQ</text></g><!--entity db2--><g id="elem_db2"><path d="M361.68,481.18 C361.68,471.18 404.9984,471.18 404.9984,471.18 C404.9984,471.18 448.3167,471.18 448.3167,481.18 L448.3167,506.4769 C448.3167,516.4769 404.9984,516.4769 404.9984,516.4769 C404.9984,516.4769 361.68,516.4769 361.68,506.4769 L361.68,481.18 " fill="#F1F1F1" style="stroke:#181818;stroke-width:0.5;"/><path d="M361.68,481.18 C361.68,491.18 404.9984,491.18 404.9984,491.18 C404.9984,491.18 448.3167,491.18 448.3167,481.18 " fill="none" style="stroke:#181818;stroke-width:0.5;"/><text fill="#000000" font-family="sans-serif" font-size="14" lengthAdjust="spacing" textLength="66.6367" x="371.68" y="508.1751">MongoDb</text></g><!--link HTTP to API--><g id="link_HTTP_API"><path d="M162.7,78.33 C156.4,93.98 142.43,128.67 133.12,151.8 " fill="none" id="HTTP-API" style="stroke:#181818;stroke-width:1.0;"/></g><!--link API to Business Logic--><g id="link_API_Business Logic"><path d="M119.66,199.07 C116.31,216.57 112.8093,234.7772 109.4593,252.2572 " fill="none" id="API-to-Business Logic" style="stroke:#181818;stroke-width:1.0;"/><polygon fill="#181818" points="108.33,258.15,113.9525,250.0638,109.2711,253.2394,106.0955,248.558,108.33,258.15" style="stroke:#181818;stroke-width:1.0;"/></g><!--link Business Logic to Persistence--><g id="link_Business Logic_Persistence"><path d="M104,305.37 C104,322.86 104,340.97 104,358.45 " fill="none" id="Business Logic-to-Persistence" style="stroke:#181818;stroke-width:1.0;"/><polygon fill="#181818" points="104,364.45,108,355.45,104,359.45,100,355.45,104,364.45" style="stroke:#181818;stroke-width:1.0;"/></g><!--link Persistence to db--><g id="link_Persistence_db"><path d="M104,411.56 C104,429.09 104,447.28 104,464.71 " fill="none" id="Persistence-to-db" style="stroke:#181818;stroke-width:1.0;"/><polygon fill="#181818" points="104,470.71,108,461.71,104,465.71,100,461.71,104,470.71" style="stroke:#181818;stroke-width:1.0;"/></g><!--link Web UI to HTTP--><g id="link_Web UI_HTTP"><path d="M122.54,69.14 C133.97,69.14 139.4,69.14 150.83,69.14 " fill="none" id="Web UI-to-HTTP" style="stroke:#181818;stroke-width:1.0;"/><polygon fill="#181818" points="156.83,69.14,147.83,65.14,151.83,69.14,147.83,73.14,156.83,69.14" style="stroke:#181818;stroke-width:1.0;"/></g><!--link Poll Aggregator to db2--><g id="link_Poll Aggregator_db2"><path d="M405,411.56 C405,429.09 405,447.28 405,464.71 " fill="none" id="Poll Aggregator-to-db2" style="stroke:#181818;stroke-width:1.0;"/><polygon fill="#181818" points="405,470.71,409,461.71,405,465.71,401,461.71,405,470.71" style="stroke:#181818;stroke-width:1.0;"/></g><!--link q to Poll Aggregator--><g id="link_q_Poll Aggregator"><path d="M296.53,388.03 C307.82,388.03 313.12,388.03 324.42,388.03 " fill="none" id="q-to-Poll Aggregator" style="stroke:#181818;stroke-width:1.0;"/><polygon fill="#181818" points="330.42,388.03,321.42,384.03,325.42,388.03,321.42,392.03,330.42,388.03" style="stroke:#181818;stroke-width:1.0;"/></g><!--link Business Logic to q--><g id="link_Business Logic_q"><path d="M172.08,305.17 C179.07,308.63 185.85,312.53 192,316.89 C214.49,332.83 230.5193,354.0127 240.7993,369.4827 " fill="none" id="Business Logic-to-q" style="stroke:#181818;stroke-width:1.0;"/><polygon fill="#181818" points="244.12,374.48,242.4704,364.7703,241.3527,370.3156,235.8074,369.1979,244.12,374.48" style="stroke:#181818;stroke-width:1.0;"/></g><!--SRC=[RO_B2i8m44Nt-OgX-sxyW49LHA52wWCNnKNI325GCsqdNOZux_QX8kfoBfSvvneLb5QC44dYO5lSvra4Yi5euSaWh11DMjTm4r2aSdE6kAjZM1yEyXt42HJpZfr7PiZ8kl8iVfAf9h5bnm5zYKFdynmBFHMA4seu3e-JYNCNJOTThxXJMhkmpKV1HfYt-vQyfQL-YiycyoZrghe6Lp8iw5AJHn-YOKVFfQg2rFPphGhKljYp0GMZvrT1_9tJF000]--></g></svg>