<svg xmlns="http://www.w3.org/2000/svg" xmlns:xlink="http://www.w3.org/1999/xlink" contentStyleType="text/css" height="694px" preserveAspectRatio="none" style="width:601px;height:694px;background:#FFFFFF;" version="1.1" viewBox="0 0 601 694" width="601px" zoomAndPan="magnify"><defs/><g><!--cluster FeedApp--><g id="cluster_FeedApp"><polygon fill="none" points="19.17,105.44,29.17,95.44,219.17,95.44,219.17,667.67,209.17,677.67,19.17,677.67,19.17,105.44" style="stroke:#181818;stroke-width:1.0;"/><line style="stroke:#181818;stroke-width:1.0;" x1="209.17" x2="219.17" y1="105.44" y2="95.44"/><line style="stroke:#181818;stroke-width:1.0;" x1="19.17" x2="209.17" y1="105.44" y2="105.44"/><line style="stroke:#181818;stroke-width:1.0;" x1="209.17" x2="209.17" y1="105.44" y2="677.67"/><text fill="#000000" font-family="sans-serif" font-size="14" font-weight="bold" lengthAdjust="spacing" textLength="69.4531" x="80.4434" y="121.4351">FeedApp</text></g><!--cluster Analytics Component--><g id="cluster_Analytics Component"><polygon fill="none" points="341.17,471.93,351.17,461.93,584.17,461.93,584.17,554.22,574.17,564.22,341.17,564.22,341.17,471.93" style="stroke:#181818;stroke-width:1.0;"/><line style="stroke:#181818;stroke-width:1.0;" x1="574.17" x2="584.17" y1="471.93" y2="461.93"/><line style="stroke:#181818;stroke-width:1.0;" x1="341.17" x2="574.17" y1="471.93" y2="471.93"/><line style="stroke:#181818;stroke-width:1.0;" x1="574.17" x2="574.17" y1="471.93" y2="564.22"/><text fill="#000000" font-family="sans-serif" font-size="14" font-weight="bold" lengthAdjust="spacing" textLength="167.4121" x="374.9639" y="487.9251">Analytics Component</text></g><!--entity ui--><g id="elem_ui"><rect fill="#F1F1F1" height="62.5938" rx="2.5" ry="2.5" style="stroke:#181818;stroke-width:0.5;" width="94.7012" x="108.82" y="135.44"/><rect fill="#F1F1F1" height="10" style="stroke:#181818;stroke-width:0.5;" width="15" x="183.5212" y="140.44"/><rect fill="#F1F1F1" height="2" style="stroke:#181818;stroke-width:0.5;" width="4" x="181.5212" y="142.44"/><rect fill="#F1F1F1" height="2" style="stroke:#181818;stroke-width:0.5;" width="4" x="181.5212" y="146.44"/><text fill="#000000" font-family="sans-serif" font-size="14" lengthAdjust="spacing" textLength="50.1689" x="123.82" y="168.4351">Web UI</text><text fill="#000000" font-family="sans-serif" font-size="14" lengthAdjust="spacing" textLength="54.7012" x="123.82" y="184.732">(Svelte)</text></g><!--entity HTTP--><g id="elem_HTTP"><ellipse cx="65.17" cy="166.74" fill="#F1F1F1" rx="8" ry="8" style="stroke:#181818;stroke-width:0.5;"/><text fill="#000000" font-family="sans-serif" font-size="14" lengthAdjust="spacing" textLength="36.0732" x="47.1334" y="196.7351">HTTP</text></g><!--entity api--><g id="elem_api"><rect fill="#F1F1F1" height="62.5938" rx="2.5" ry="2.5" style="stroke:#181818;stroke-width:0.5;" width="167.7773" x="35.28" y="264.89"/><rect fill="#F1F1F1" height="10" style="stroke:#181818;stroke-width:0.5;" width="15" x="183.0573" y="269.89"/><rect fill="#F1F1F1" height="2" style="stroke:#181818;stroke-width:0.5;" width="4" x="181.0573" y="271.89"/><rect fill="#F1F1F1" height="2" style="stroke:#181818;stroke-width:0.5;" width="4" x="181.0573" y="275.89"/><text fill="#000000" font-family="sans-serif" font-size="14" lengthAdjust="spacing" textLength="62.6104" x="50.28" y="297.8851">REST API</text><text fill="#000000" font-family="sans-serif" font-size="14" lengthAdjust="spacing" textLength="127.7773" x="50.28" y="314.182">(Spring Web MVC)</text></g><!--entity dom--><g id="elem_dom"><rect fill="#F1F1F1" height="46.2969" rx="2.5" ry="2.5" style="stroke:#181818;stroke-width:0.5;" width="143.0244" x="53.66" y="387.48"/><rect fill="#F1F1F1" height="10" style="stroke:#181818;stroke-width:0.5;" width="15" x="176.6844" y="392.48"/><rect fill="#F1F1F1" height="2" style="stroke:#181818;stroke-width:0.5;" width="4" x="174.6844" y="394.48"/><rect fill="#F1F1F1" height="2" style="stroke:#181818;stroke-width:0.5;" width="4" x="174.6844" y="398.48"/><text fill="#000000" font-family="sans-serif" font-size="14" lengthAdjust="spacing" textLength="103.0244" x="68.66" y="420.4751">Business Logic</text></g><!--entity per--><g id="elem_per"><rect fill="#F1F1F1" height="62.5938" rx="2.5" ry="2.5" style="stroke:#181818;stroke-width:0.5;" width="120.5752" x="64.88" y="493.78"/><rect fill="#F1F1F1" height="10" style="stroke:#181818;stroke-width:0.5;" width="15" x="165.4552" y="498.78"/><rect fill="#F1F1F1" height="2" style="stroke:#181818;stroke-width:0.5;" width="4" x="163.4552" y="500.78"/><rect fill="#F1F1F1" height="2" style="stroke:#181818;stroke-width:0.5;" width="4" x="163.4552" y="504.78"/><text fill="#000000" font-family="sans-serif" font-size="14" lengthAdjust="spacing" textLength="80.5752" x="79.88" y="526.7751">Persistence</text><text fill="#000000" font-family="sans-serif" font-size="14" lengthAdjust="spacing" textLength="33.0723" x="79.88" y="543.072">(JPA)</text></g><!--entity H2--><g id="elem_H2"><path d="M105.45,626.37 C105.45,616.37 125.1673,616.37 125.1673,616.37 C125.1673,616.37 144.8846,616.37 144.8846,626.37 L144.8846,651.6669 C144.8846,661.6669 125.1673,661.6669 125.1673,661.6669 C125.1673,661.6669 105.45,661.6669 105.45,651.6669 L105.45,626.37 " fill="#F1F1F1" style="stroke:#181818;stroke-width:0.5;"/><path d="M105.45,626.37 C105.45,636.37 125.1673,636.37 125.1673,636.37 C125.1673,636.37 144.8846,636.37 144.8846,626.37 " fill="none" style="stroke:#181818;stroke-width:0.5;"/><text fill="#000000" font-family="sans-serif" font-size="14" lengthAdjust="spacing" textLength="19.4346" x="115.45" y="653.3651">H2</text></g><!--entity agg--><g id="elem_agg"><rect fill="#F1F1F1" height="46.2969" rx="2.5" ry="2.5" style="stroke:#181818;stroke-width:0.5;" width="148.2334" x="358.05" y="501.93"/><rect fill="#F1F1F1" height="10" style="stroke:#181818;stroke-width:0.5;" width="15" x="486.2834" y="506.93"/><rect fill="#F1F1F1" height="2" style="stroke:#181818;stroke-width:0.5;" width="4" x="484.2834" y="508.93"/><rect fill="#F1F1F1" height="2" style="stroke:#181818;stroke-width:0.5;" width="4" x="484.2834" y="512.93"/><text fill="#000000" font-family="sans-serif" font-size="14" lengthAdjust="spacing" textLength="108.2334" x="373.05" y="534.9251">Poll Aggregator</text></g><!--entity mu--><g id="elem_mu"><polygon fill="#F1F1F1" points="16,16,26,6,114.3311,6,114.3311,58.5938,104.3311,68.5938,16,68.5938,16,16" style="stroke:#181818;stroke-width:0.5;"/><line style="stroke:#181818;stroke-width:0.5;" x1="104.3311" x2="114.3311" y1="16" y2="6"/><line style="stroke:#181818;stroke-width:0.5;" x1="16" x2="104.3311" y1="16" y2="16"/><line style="stroke:#181818;stroke-width:0.5;" x1="104.3311" x2="104.3311" y1="16" y2="68.5938"/><text fill="#000000" font-family="sans-serif" font-size="14" lengthAdjust="spacing" textLength="58.3311" x="31" y="38.9951">External</text><text fill="#000000" font-family="sans-serif" font-size="14" lengthAdjust="spacing" textLength="47.8242" x="31" y="55.292">Clients</text></g><!--entity mongo--><g id="elem_mongo"><path d="M388.49,626.37 C388.49,616.37 432.1672,616.37 432.1672,616.37 C432.1672,616.37 475.8445,616.37 475.8445,626.37 L475.8445,651.6669 C475.8445,661.6669 432.1672,661.6669 432.1672,661.6669 C432.1672,661.6669 388.49,661.6669 388.49,651.6669 L388.49,626.37 " fill="#F1F1F1" style="stroke:#181818;stroke-width:0.5;"/><path d="M388.49,626.37 C388.49,636.37 432.1672,636.37 432.1672,636.37 C432.1672,636.37 475.8445,636.37 475.8445,626.37 " fill="none" style="stroke:#181818;stroke-width:0.5;"/><text fill="#000000" font-family="sans-serif" font-size="14" lengthAdjust="spacing" textLength="67.3545" x="398.49" y="653.3651">MongoDB</text></g><!--entity msg--><g id="elem_msg"><path d="M239.89,511.93 L318.4476,511.93 C323.4476,511.93 323.4476,525.0784 323.4476,525.0784 C323.4476,525.0784 323.4476,538.2269 318.4476,538.2269 L239.89,538.2269 C234.89,538.2269 234.89,525.0784 234.89,525.0784 C234.89,525.0784 234.89,511.93 239.89,511.93 " fill="#F1F1F1" style="stroke:#181818;stroke-width:0.5;"/><path d="M318.4476,511.93 C313.4476,511.93 313.4476,525.0784 313.4476,525.0784 C313.4476,538.2269 318.4476,538.2269 318.4476,538.2269 " fill="none" style="stroke:#181818;stroke-width:0.5;"/><text fill="#000000" font-family="sans-serif" font-size="14" lengthAdjust="spacing" textLength="68.5576" x="239.89" y="529.9251">RabbitMQ</text></g><!--entity ru--><g id="elem_ru"><ellipse cx="273.1699" cy="137.09" fill="#F1F1F1" rx="8" ry="8" style="stroke:#181818;stroke-width:0.5;"/><path d="M273.1699,145.09 L273.1699,172.09 M260.1699,153.09 L286.1699,153.09 M273.1699,172.09 L260.1699,187.09 M273.1699,172.09 L286.1699,187.09 " fill="none" style="stroke:#181818;stroke-width:0.5;"/><text fill="#000000" font-family="sans-serif" font-size="14" lengthAdjust="spacing" textLength="70.2598" x="238.04" y="201.5851">End Users</text></g><!--reverse link HTTP to ui--><g id="link_HTTP_ui"><path d="M84.41,166.74 C95.8,166.74 97.19,166.74 108.58,166.74 " fill="none" id="HTTP-backto-ui" style="stroke:#181818;stroke-width:1.0;"/><path d="M77.4882,175.1972 A9,9 0 0 0 77.4882 158.2828" fill="none" style="stroke:#181818;stroke-width:1.5;"/></g><!--link HTTP to api--><g id="link_HTTP_api"><path d="M68.71,176.1 C76.17,193.71 93.83,235.38 106.14,264.44 " fill="none" id="HTTP-api" style="stroke:#181818;stroke-width:1.0;"/></g><!--link api to dom--><g id="link_api_dom"><path d="M120.81,327.91 C121.81,346.64 122.7393,364.1586 123.6493,381.1586 " fill="none" id="api-to-dom" style="stroke:#181818;stroke-width:1.0;"/><polygon fill="#181818" points="123.97,387.15,127.4832,377.9491,123.7027,382.1571,119.4946,378.3767,123.97,387.15" style="stroke:#181818;stroke-width:1.0;"/></g><!--link dom to per--><g id="link_dom_per"><path d="M125.17,434.12 C125.17,451.16 125.17,468.78 125.17,487.54 " fill="none" id="dom-to-per" style="stroke:#181818;stroke-width:1.0;"/><polygon fill="#181818" points="125.17,493.54,129.17,484.54,125.17,488.54,121.17,484.54,125.17,493.54" style="stroke:#181818;stroke-width:1.0;"/></g><!--link per to H2--><g id="link_per_H2"><path d="M125.17,562.67 C125.17,581.44 125.17,593.05 125.17,609.99 " fill="none" id="per-H2" style="stroke:#181818;stroke-width:1.0;"/><polygon fill="#181818" points="125.17,556.67,121.17,565.67,125.17,561.67,129.17,565.67,125.17,556.67" style="stroke:#181818;stroke-width:1.0;"/><polygon fill="#181818" points="125.17,615.99,129.17,606.99,125.17,610.99,121.17,606.99,125.17,615.99" style="stroke:#181818;stroke-width:1.0;"/></g><!--link agg to mongo--><g id="link_agg_mongo"><path d="M432.17,554.46 C432.17,574.11 432.17,590.53 432.17,610.06 " fill="none" id="agg-mongo" style="stroke:#181818;stroke-width:1.0;"/><polygon fill="#181818" points="432.17,548.46,428.17,557.46,432.17,553.46,436.17,557.46,432.17,548.46" style="stroke:#181818;stroke-width:1.0;"/><polygon fill="#181818" points="432.17,616.06,436.17,607.06,432.17,611.06,428.17,607.06,432.17,616.06" style="stroke:#181818;stroke-width:1.0;"/></g><!--reverse link msg to agg--><g id="link_msg_agg"><path d="M329.7,525.08 C340.99,525.08 346.29,525.08 357.59,525.08 " fill="none" id="msg-backto-agg" style="stroke:#181818;stroke-width:1.0;"/><polygon fill="#181818" points="323.7,525.08,332.7,529.08,328.7,525.08,332.7,521.08,323.7,525.08" style="stroke:#181818;stroke-width:1.0;"/></g><!--link dom to msg--><g id="link_dom_msg"><path d="M186.05,434.27 C197.57,439.85 209.14,446.42 219.17,453.93 C241.1,470.36 257.1131,491.1874 267.5831,506.4974 " fill="none" id="dom-to-msg" style="stroke:#181818;stroke-width:1.0;"/><polygon fill="#181818" points="270.97,511.45,269.1913,501.7631,268.1475,507.3228,262.5878,506.279,270.97,511.45" style="stroke:#181818;stroke-width:1.0;"/></g><!--link ru to ui--><g id="link_ru_ui"><path d="M237.62,166.74 C226.31,166.74 221.01,166.74 209.7,166.74 " fill="none" id="ru-to-ui" style="stroke:#181818;stroke-width:1.0;stroke-dasharray:7.0,7.0;"/><polygon fill="#181818" points="203.7,166.74,212.7,170.74,208.7,166.74,212.7,162.74,203.7,166.74" style="stroke:#181818;stroke-width:1.0;"/></g><!--link mu to HTTP--><g id="link_mu_HTTP"><path d="M65.17,68.82 C65.17,97.84 65.17,133.59 65.17,151.29 " fill="none" id="mu-to-HTTP" style="stroke:#181818;stroke-width:1.0;stroke-dasharray:7.0,7.0;"/><polygon fill="#181818" points="65.17,157.29,69.17,148.29,65.17,152.29,61.17,148.29,65.17,157.29" style="stroke:#181818;stroke-width:1.0;"/></g><!--SRC=[PP7BJiCm44Nt_efHLcKH5gnHfRGK0Q9Iw0CstJZ9rBAKZ8qVF8JuTyPnIojOM1gFxpqpkYRJ8HIBZu2EPB-ZUQ-HWYz0UXYYeF7v5h6hh2tWIxHci8PO0iKBDh2ztz5a_OPzm8lH4xNGnB2zR17kDflwtB5Qh3TGrQF7EaqA4cFvFCzUQRM86ieUzw6SP3Vte8os_CUQHQy9lOT7etGx-Zipd2jgT5xxWDGY3toegpp5eXET3BAHdZUyoXCwyqxbT2Jm-RqdBH-uFZPO_tro5qj3ojpCSbgf5eV4AWxpC-ZMm_ouq9_qQjFtK2dbKCbWN0v0ASQ_HeoCMCccqM7vbE5U2NuzBPAdfLQEQpfAnjqFjP0jS_blgOEjvomAI2GNXOjmEKq_DN2HU7nByVu0]--></g></svg>