<?xml version="1.0" encoding="utf-8"?>
<!-- created with diagram-js -->
<!DOCTYPE svg PUBLIC "-//W3C//DTD SVG 1.1//EN" "http://www.w3.org/Graphics/SVG/1.1/DTD/svg11.dtd">
<svg xmlns="http://www.w3.org/2000/svg" xmlns:xlink="http://www.w3.org/1999/xlink" width="767" height="502" viewBox="114 274 767 502" version="1.1"><defs><marker id="-white-black-8gbjn3i5rcgmt33djzvuf7xcu" viewBox="0 0 20 20" refX="11" refY="10" markerWidth="10" markerHeight="10" orient="auto"><path d="M 1 5 L 11 10 L 1 15 Z" style="stroke-width: 1px; stroke-linecap: round; stroke-dasharray: 10000px, 1px;"/></marker></defs><g class="djs-group"><g class="djs-element djs-connection" data-element-id="Link_1vctwua" style="display: block;"><g class="djs-visual"><path d="m  500,325L690,325 " style="fill: none; stroke-width: 2px; stroke: black; stroke-linejoin: round; marker-end: url('#-white-black-8gbjn3i5rcgmt33djzvuf7xcu');"/></g><path d="M500,325L690,325" style="fill: none; stroke-opacity: 0; stroke: white; stroke-width: 15px;" class="djs-hit djs-hit-stroke"/><rect x="494" y="319" rx="4" width="202" height="12" style="fill: none;" class="djs-outline"/></g></g><g class="djs-group"><g class="djs-element djs-connection" data-element-id="Link_1xfhe0z" style="display: block;"><g class="djs-visual"><path d="m  270,515L340,515 " style="fill: none; stroke-width: 2px; stroke: black; stroke-linejoin: round; marker-end: url('#-white-black-8gbjn3i5rcgmt33djzvuf7xcu');"/></g><path d="M270,515L340,515" style="fill: none; stroke-opacity: 0; stroke: white; stroke-width: 15px;" class="djs-hit djs-hit-stroke"/><rect x="264" y="509" rx="4" width="82" height="12" style="fill: none;" class="djs-outline"/></g></g><g class="djs-group"><g class="djs-element djs-connection" data-element-id="Link_0ewfzaj" style="display: block;"><g class="djs-visual"><path d="m  560,515L490,515 " style="fill: none; stroke-width: 2px; stroke: black; stroke-linejoin: round; marker-end: url('#-white-black-8gbjn3i5rcgmt33djzvuf7xcu');"/></g><path d="M560,515L490,515" style="fill: none; stroke-opacity: 0; stroke: white; stroke-width: 15px;" class="djs-hit djs-hit-stroke"/><rect x="484" y="509" rx="4" width="82" height="12" style="fill: none;" class="djs-outline"/></g></g><g class="djs-group"><g class="djs-element djs-connection" data-element-id="Link_1dt12zm" style="display: block;"><g class="djs-visual"><path d="m  395,680L395,620 L635,620 L635,560 " style="fill: none; stroke-width: 2px; stroke: black; stroke-linejoin: round; marker-end: url('#-white-black-8gbjn3i5rcgmt33djzvuf7xcu');"/></g><path d="M395,680L395,620L635,620L635,560" style="fill: none; stroke-opacity: 0; stroke: white; stroke-width: 15px;" class="djs-hit djs-hit-stroke"/><rect x="389" y="554" rx="4" width="252" height="132" style="fill: none;" class="djs-outline"/></g></g><g class="djs-group"><g class="djs-element djs-connection" data-element-id="Link_081wjql" style="display: block;"><g class="djs-visual"><path d="m  635,560L635,620 L395,620 L395,680 " style="fill: none; stroke-width: 2px; stroke: black; stroke-linejoin: round; marker-end: url('#-white-black-8gbjn3i5rcgmt33djzvuf7xcu');"/></g><path d="M635,560L635,620L395,620L395,680" style="fill: none; stroke-opacity: 0; stroke: white; stroke-width: 15px;" class="djs-hit djs-hit-stroke"/><rect x="389" y="554" rx="4" width="252" height="132" style="fill: none;" class="djs-outline"/></g></g><g class="djs-group"><g class="djs-element djs-connection" data-element-id="Link_026clpl" style="display: block;"><g class="djs-visual"><path d="m  395,680L395,620 L195,620 L195,560 " style="fill: none; stroke-width: 2px; stroke: black; stroke-linejoin: round; marker-end: url('#-white-black-8gbjn3i5rcgmt33djzvuf7xcu');"/></g><path d="M395,680L395,620L195,620L195,560" style="fill: none; stroke-opacity: 0; stroke: white; stroke-width: 15px;" class="djs-hit djs-hit-stroke"/><rect x="189" y="554" rx="4" width="212" height="132" style="fill: none;" class="djs-outline"/></g></g><g class="djs-group"><g class="djs-element djs-connection" data-element-id="Link_0h87xxl" style="display: block;"><g class="djs-visual"><path d="m  195,560L195,620 L395,620 L395,680 " style="fill: none; stroke-width: 2px; stroke: black; stroke-linejoin: round; marker-end: url('#-white-black-8gbjn3i5rcgmt33djzvuf7xcu');"/></g><path d="M195,560L195,620L395,620L395,680" style="fill: none; stroke-opacity: 0; stroke: white; stroke-width: 15px;" class="djs-hit djs-hit-stroke"/><rect x="189" y="554" rx="4" width="212" height="132" style="fill: none;" class="djs-outline"/></g></g><g class="djs-group"><g class="djs-element djs-connection" data-element-id="Link_1hrc4i5" style="display: block;"><g class="djs-visual"><path d="m  395,370L395,420 L635,420 L635,470 " style="fill: none; stroke-width: 2px; stroke: black; stroke-linejoin: round; marker-end: url('#-white-black-8gbjn3i5rcgmt33djzvuf7xcu');"/></g><path d="M395,370L395,420L635,420L635,470" style="fill: none; stroke-opacity: 0; stroke: white; stroke-width: 15px;" class="djs-hit djs-hit-stroke"/><rect x="389" y="364" rx="4" width="252" height="112" style="fill: none;" class="djs-outline"/></g></g><g class="djs-group"><g class="djs-element djs-connection" data-element-id="Link_116g5xh" style="display: block;"><g class="djs-visual"><path d="m  395,370L395,420 L195,420 L195,470 " style="fill: none; stroke-width: 2px; stroke: black; stroke-linejoin: round; marker-end: url('#-white-black-8gbjn3i5rcgmt33djzvuf7xcu');"/></g><path d="M395,370L395,420L195,420L195,470" style="fill: none; stroke-opacity: 0; stroke: white; stroke-width: 15px;" class="djs-hit djs-hit-stroke"/><rect x="189" y="364" rx="4" width="212" height="112" style="fill: none;" class="djs-outline"/></g></g><g class="djs-group"><g class="djs-element djs-connection" data-element-id="Link_1128iwb" style="display: block;"><g class="djs-visual"><path d="m  690,325L500,325 " style="fill: none; stroke-width: 2px; stroke: black; stroke-linejoin: round; marker-end: url('#-white-black-8gbjn3i5rcgmt33djzvuf7xcu');"/></g><path d="M690,325L500,325" style="fill: none; stroke-opacity: 0; stroke: white; stroke-width: 15px;" class="djs-hit djs-hit-stroke"/><rect x="494" y="319" rx="4" width="202" height="12" style="fill: none;" class="djs-outline"/></g></g><g class="djs-group"><g class="djs-element djs-shape" data-element-id="Object_1pcaiku" transform="matrix(1, 0, 0, 1, 290, 280)" style="display: block;"><g class="djs-visual"><rect x="0" y="0" width="210" height="90" rx="0" ry="0" style="stroke: black; stroke-width: 2px; fill: white; fill-opacity: 0.35;"/><path style="fill: none; stroke: black; stroke-width: 2px;" d="M0,30L210,30"/><text style="font-family: IBM Plex, sans-serif; font-size: 16px; font-weight: normal;" lineHeight="1.2" class="djs-label"><tspan x="62.95000076293945" y="19.8">1:Customer</tspan></text><text style="font-family: IBM Plex, sans-serif; font-size: 16px; font-weight: normal;" lineHeight="1.2" class="djs-label"><tspan x="11.375" y="64.8">name="Max Mustermann"</tspan></text></g><rect style="fill: none; stroke-opacity: 0; stroke: white; stroke-width: 15px;" class="djs-hit djs-hit-all" x="0" y="0" width="210" height="90"/><rect x="-6" y="-6" rx="4" width="222" height="102" style="fill: none;" class="djs-outline"/></g></g><g class="djs-group"><g class="djs-element djs-shape" data-element-id="Object_0bue4yb" transform="matrix(1, 0, 0, 1, 690, 280)" style="display: block;"><g class="djs-visual"><rect x="0" y="0" width="185" height="90" rx="0" ry="0" style="stroke: black; stroke-width: 2px; fill: white; fill-opacity: 0.35;"/><path style="fill: none; stroke: black; stroke-width: 2px;" d="M0,30L185,30"/><text style="font-family: IBM Plex, sans-serif; font-size: 16px; font-weight: normal;" lineHeight="1.2" class="djs-label"><tspan x="55.91666793823242" y="19.8">1:Address</tspan></text><text style="font-family: IBM Plex, sans-serif; font-size: 16px; font-weight: normal;" lineHeight="1.2" class="djs-label"><tspan x="13.608329772949219" y="55.2">street="Inndalsveien"</tspan><tspan x="50.06666564941406" y="74.4">number=28</tspan></text></g><rect style="fill: none; stroke-opacity: 0; stroke: white; stroke-width: 15px;" class="djs-hit djs-hit-all" x="0" y="0" width="185" height="90"/><rect x="-6" y="-6" rx="4" width="197" height="102" style="fill: none;" class="djs-outline"/></g></g><g class="djs-group"><g class="djs-element djs-shape" data-element-id="Object_00o4fid" transform="matrix(1, 0, 0, 1, 305, 680)" style="display: block;"><g class="djs-visual"><rect x="0" y="0" width="180" height="90" rx="0" ry="0" style="stroke: black; stroke-width: 2px; fill: white; fill-opacity: 0.35;"/><path style="fill: none; stroke: black; stroke-width: 2px;" d="M0,30L180,30"/><text style="font-family: IBM Plex, sans-serif; font-size: 16px; font-weight: normal;" lineHeight="1.2" class="djs-label"><tspan x="64.60833358764648" y="19.8">1:Bank</tspan></text><text style="font-family: IBM Plex, sans-serif; font-size: 16px; font-weight: normal;" lineHeight="1.2" class="djs-label"><tspan x="18.441665649414062" y="64.8">name="Pengebank"</tspan></text></g><rect style="fill: none; stroke-opacity: 0; stroke: white; stroke-width: 15px;" class="djs-hit djs-hit-all" x="0" y="0" width="180" height="90"/><rect x="-6" y="-6" rx="4" width="192" height="102" style="fill: none;" class="djs-outline"/></g></g><g class="djs-group"><g class="djs-element djs-shape" data-element-id="Object_0916ill" transform="matrix(1, 0, 0, 1, 120, 470)" style="display: block;"><g class="djs-visual"><rect x="0" y="0" width="150" height="90" rx="0" ry="0" style="stroke: black; stroke-width: 2px; fill: white; fill-opacity: 0.35;"/><path style="fill: none; stroke: black; stroke-width: 2px;" d="M0,30L150,30"/><text style="font-family: IBM Plex, sans-serif; font-size: 16px; font-weight: normal;" lineHeight="1.2" class="djs-label"><tspan x="29.38333511352539" y="19.8">1:CreditCard</tspan></text><text style="font-family: IBM Plex, sans-serif; font-size: 16px; font-weight: normal;" lineHeight="1.2" class="djs-label"><tspan x="18.166667938232422" y="45.6">number=12345</tspan><tspan x="19.53333282470703" y="64.8">balance=-5000</tspan><tspan x="27.041667938232422" y="84">limit=-10000</tspan></text></g><rect style="fill: none; stroke-opacity: 0; stroke: white; stroke-width: 15px;" class="djs-hit djs-hit-all" x="0" y="0" width="150" height="90"/><rect x="-6" y="-6" rx="4" width="162" height="102" style="fill: none;" class="djs-outline"/></g></g><g class="djs-group"><g class="djs-element djs-shape" data-element-id="Object_0ohxl4c" transform="matrix(1, 0, 0, 1, 560, 470)" style="display: block;"><g class="djs-visual"><rect x="0" y="0" width="150" height="90" rx="0" ry="0" style="stroke: black; stroke-width: 2px; fill: white; fill-opacity: 0.35;"/><path style="fill: none; stroke: black; stroke-width: 2px;" d="M0,30L150,30"/><text style="font-family: IBM Plex, sans-serif; font-size: 16px; font-weight: normal;" lineHeight="1.2" class="djs-label"><tspan x="29.38333511352539" y="19.8">2:CreditCard</tspan></text><text style="font-family: IBM Plex, sans-serif; font-size: 16px; font-weight: normal;" lineHeight="1.2" class="djs-label"><tspan x="27.766666412353516" y="45.6">number=123</tspan><tspan x="37.125" y="64.8">balance=1</tspan><tspan x="35.03333282470703" y="84">limit=2000</tspan></text></g><rect style="fill: none; stroke-opacity: 0; stroke: white; stroke-width: 15px;" class="djs-hit djs-hit-all" x="0" y="0" width="150" height="90"/><rect x="-6" y="-6" rx="4" width="162" height="102" style="fill: none;" class="djs-outline"/></g></g><g class="djs-group"><g class="djs-element djs-shape" data-element-id="Object_1hp9irm" transform="matrix(1, 0, 0, 1, 340, 470)" style="display: block;"><g class="djs-visual"><rect x="0" y="0" width="150" height="90" rx="0" ry="0" style="stroke: black; stroke-width: 2px; fill: white; fill-opacity: 0.35;"/><path style="fill: none; stroke: black; stroke-width: 2px;" d="M0,30L150,30"/><text style="font-family: IBM Plex, sans-serif; font-size: 16px; font-weight: normal;" lineHeight="1.2" class="djs-label"><tspan x="38.983333587646484" y="19.8">1:Pincode</tspan></text><text style="font-family: IBM Plex, sans-serif; font-size: 16px; font-weight: normal;" lineHeight="1.2" class="djs-label"><tspan x="20.424999237060547" y="55.2">pincode="123"</tspan><tspan x="45.04999923706055" y="74.4">count=1</tspan></text></g><rect style="fill: none; stroke-opacity: 0; stroke: white; stroke-width: 15px;" class="djs-hit djs-hit-all" x="0" y="0" width="150" height="90"/><rect x="-6" y="-6" rx="4" width="162" height="102" style="fill: none;" class="djs-outline"/></g></g><g class="djs-group"><g class="djs-element djs-shape" data-element-id="Link_1128iwb_label" transform="matrix(1, 0, 0, 1, 510, 307)" style="display: block;"><g class="djs-visual"><text style="font-family: IBM Plex, sans-serif; font-size: 15px; font-weight: normal; fill: black;" lineHeight="1.2" class="djs-label"><tspan x="0" y="13.5">owner</tspan></text></g><rect style="fill: none; stroke-opacity: 0; stroke: white; stroke-width: 15px;" class="djs-hit djs-hit-all" x="0" y="0" width="43" height="18"/><rect x="-6" y="-6" rx="4" width="55" height="30" style="fill: none;" class="djs-outline"/></g></g><g class="djs-group"><g class="djs-element djs-shape" data-element-id="Link_116g5xh_label" transform="matrix(1, 0, 0, 1, 200, 440)" style="display: block;"><g class="djs-visual"><text style="font-family: IBM Plex, sans-serif; font-size: 15px; font-weight: normal; fill: black;" lineHeight="1.2" class="djs-label"><tspan x="0" y="13.5">card</tspan></text></g><rect style="fill: none; stroke-opacity: 0; stroke: white; stroke-width: 15px;" class="djs-hit djs-hit-all" x="0" y="0" width="30" height="18"/><rect x="-6" y="-6" rx="4" width="42" height="30" style="fill: none;" class="djs-outline"/></g></g><g class="djs-group"><g class="djs-element djs-shape" data-element-id="Link_1hrc4i5_label" transform="matrix(1, 0, 0, 1, 600, 440)" style="display: block;"><g class="djs-visual"><text style="font-family: IBM Plex, sans-serif; font-size: 15px; font-weight: normal; fill: black;" lineHeight="1.2" class="djs-label"><tspan x="0" y="13.5">card</tspan></text></g><rect style="fill: none; stroke-opacity: 0; stroke: white; stroke-width: 15px;" class="djs-hit djs-hit-all" x="0" y="0" width="30" height="18"/><rect x="-6" y="-6" rx="4" width="42" height="30" style="fill: none;" class="djs-outline"/></g></g><g class="djs-group"><g class="djs-element djs-shape" data-element-id="Link_0h87xxl_label" transform="matrix(1, 0, 0, 1, 350, 650)" style="display: block;"><g class="djs-visual"><text style="font-family: IBM Plex, sans-serif; font-size: 15px; font-weight: normal; fill: black;" lineHeight="1.2" class="djs-label"><tspan x="0" y="13.5">bank</tspan></text></g><rect style="fill: none; stroke-opacity: 0; stroke: white; stroke-width: 15px;" class="djs-hit djs-hit-all" x="0" y="0" width="34" height="18"/><rect x="-6" y="-6" rx="4" width="46" height="30" style="fill: none;" class="djs-outline"/></g></g><g class="djs-group"><g class="djs-element djs-shape" data-element-id="Link_026clpl_label" transform="matrix(1, 0, 0, 1, 200, 570)" style="display: block;"><g class="djs-visual"><text style="font-family: IBM Plex, sans-serif; font-size: 15px; font-weight: normal; fill: black;" lineHeight="1.2" class="djs-label"><tspan x="0" y="13.5">ownsCard</tspan></text></g><rect style="fill: none; stroke-opacity: 0; stroke: white; stroke-width: 15px;" class="djs-hit djs-hit-all" x="0" y="0" width="68" height="18"/><rect x="-6" y="-6" rx="4" width="80" height="30" style="fill: none;" class="djs-outline"/></g></g><g class="djs-group"><g class="djs-element djs-shape" data-element-id="Link_081wjql_label" transform="matrix(1, 0, 0, 1, 410, 650)" style="display: block;"><g class="djs-visual"><text style="font-family: IBM Plex, sans-serif; font-size: 15px; font-weight: normal; fill: black;" lineHeight="1.2" class="djs-label"><tspan x="0" y="13.5">bank</tspan></text></g><rect style="fill: none; stroke-opacity: 0; stroke: white; stroke-width: 15px;" class="djs-hit djs-hit-all" x="0" y="0" width="34" height="18"/><rect x="-6" y="-6" rx="4" width="46" height="30" style="fill: none;" class="djs-outline"/></g></g><g class="djs-group"><g class="djs-element djs-shape" data-element-id="Link_1dt12zm_label" transform="matrix(1, 0, 0, 1, 560, 570)" style="display: block;"><g class="djs-visual"><text style="font-family: IBM Plex, sans-serif; font-size: 15px; font-weight: normal; fill: black;" lineHeight="1.2" class="djs-label"><tspan x="0" y="13.5">ownsCard</tspan></text></g><rect style="fill: none; stroke-opacity: 0; stroke: white; stroke-width: 15px;" class="djs-hit djs-hit-all" x="0" y="0" width="68" height="18"/><rect x="-6" y="-6" rx="4" width="80" height="30" style="fill: none;" class="djs-outline"/></g></g><g class="djs-group"><g class="djs-element djs-shape" data-element-id="Link_0ewfzaj_label" transform="matrix(1, 0, 0, 1, 515, 497)" style="display: block;"><g class="djs-visual"><text style="font-family: IBM Plex, sans-serif; font-size: 15px; font-weight: normal; fill: black;" lineHeight="1.2" class="djs-label"><tspan x="0" y="13.5">pin</tspan></text></g><rect style="fill: none; stroke-opacity: 0; stroke: white; stroke-width: 15px;" class="djs-hit djs-hit-all" x="0" y="0" width="21" height="18"/><rect x="-6" y="-6" rx="4" width="33" height="30" style="fill: none;" class="djs-outline"/></g></g><g class="djs-group"><g class="djs-element djs-shape" data-element-id="Link_1xfhe0z_label" transform="matrix(1, 0, 0, 1, 295, 497)" style="display: block;"><g class="djs-visual"><text style="font-family: IBM Plex, sans-serif; font-size: 15px; font-weight: normal; fill: black;" lineHeight="1.2" class="djs-label"><tspan x="0" y="13.5">pin</tspan></text></g><rect style="fill: none; stroke-opacity: 0; stroke: white; stroke-width: 15px;" class="djs-hit djs-hit-all" x="0" y="0" width="21" height="18"/><rect x="-6" y="-6" rx="4" width="33" height="30" style="fill: none;" class="djs-outline"/></g></g><g class="djs-group"><g class="djs-element djs-shape" data-element-id="Link_1vctwua_label" transform="matrix(1, 0, 0, 1, 630, 307)" style="display: block;"><g class="djs-visual"><text style="font-family: IBM Plex, sans-serif; font-size: 15px; font-weight: normal; fill: black;" lineHeight="1.2" class="djs-label"><tspan x="0" y="13.5">adress</tspan></text></g><rect style="fill: none; stroke-opacity: 0; stroke: white; stroke-width: 15px;" class="djs-hit djs-hit-all" x="0" y="0" width="45" height="18"/><rect x="-6" y="-6" rx="4" width="57" height="30" style="fill: none;" class="djs-outline"/></g></g></svg>