<?xml version="1.0" encoding="utf-8"?>
<!-- created with diagram-js -->
<!DOCTYPE svg PUBLIC "-//W3C//DTD SVG 1.1//EN" "http://www.w3.org/Graphics/SVG/1.1/DTD/svg11.dtd">
<svg xmlns="http://www.w3.org/2000/svg" xmlns:xlink="http://www.w3.org/1999/xlink" width="767" height="502" viewBox="114 274 767 502" version="1.1"><defs><marker id="-white-black-b3uq7l991ijkfmyoqrfugrway" viewBox="0 0 20 20" refX="11" refY="10" markerWidth="10" markerHeight="10" orient="auto"><path d="M 1 5 L 11 10 L 1 15 Z" style="stroke-width: 1px; stroke-linecap: round; stroke-dasharray: 10000, 1;"/></marker></defs><g class="djs-group"><g class="djs-element djs-connection" data-element-id="Link_116g5xh" style="display: block;"><g class="djs-visual"><path d="m  395,370L395,420 L195,420 L195,470 " style="fill: none; stroke-width: 2px; stroke: black; stroke-linejoin: round; marker-end: url('#-white-black-b3uq7l991ijkfmyoqrfugrway');"/></g><polyline points="395,370 395,420 195,420 195,470 " class="djs-hit djs-hit-stroke" style="fill: none; stroke-opacity: 0; stroke: white; stroke-width: 15px;"/><rect x="189" y="364" width="212" height="112" class="djs-outline" style="fill: none;"/></g></g><g class="djs-group"><g class="djs-element djs-connection" data-element-id="Link_1128iwb" style="display: block;"><g class="djs-visual"><path d="m  690,325L500,325 " style="fill: none; stroke-width: 2px; stroke: black; stroke-linejoin: round; marker-end: url('#-white-black-b3uq7l991ijkfmyoqrfugrway');"/></g><polyline points="690,325 500,325 " class="djs-hit djs-hit-stroke" style="fill: none; stroke-opacity: 0; stroke: white; stroke-width: 15px;"/><rect x="494" y="319" width="202" height="12" class="djs-outline" style="fill: none;"/></g></g><g class="djs-group"><g class="djs-element djs-connection" data-element-id="Link_1hrc4i5" style="display: block;"><g class="djs-visual"><path d="m  395,370L395,420 L635,420 L635,470 " style="fill: none; stroke-width: 2px; stroke: black; stroke-linejoin: round; marker-end: url('#-white-black-b3uq7l991ijkfmyoqrfugrway');"/></g><polyline points="395,370 395,420 635,420 635,470 " class="djs-hit djs-hit-stroke" style="fill: none; stroke-opacity: 0; stroke: white; stroke-width: 15px;"/><rect x="389" y="364" width="252" height="112" class="djs-outline" style="fill: none;"/></g></g><g class="djs-group"><g class="djs-element djs-connection" data-element-id="Link_0h87xxl" style="display: block;"><g class="djs-visual"><path d="m  195,560L195,620 L395,620 L395,680 " style="fill: none; stroke-width: 2px; stroke: black; stroke-linejoin: round; marker-end: url('#-white-black-b3uq7l991ijkfmyoqrfugrway');"/></g><polyline points="195,560 195,620 395,620 395,680 " class="djs-hit djs-hit-stroke" style="fill: none; stroke-opacity: 0; stroke: white; stroke-width: 15px;"/><rect x="189" y="554" width="212" height="132" class="djs-outline" style="fill: none;"/></g></g><g class="djs-group"><g class="djs-element djs-connection" data-element-id="Link_026clpl" style="display: block;"><g class="djs-visual"><path d="m  395,680L395,620 L195,620 L195,560 " style="fill: none; stroke-width: 2px; stroke: black; stroke-linejoin: round; marker-end: url('#-white-black-b3uq7l991ijkfmyoqrfugrway');"/></g><polyline points="395,680 395,620 195,620 195,560 " class="djs-hit djs-hit-stroke" style="fill: none; stroke-opacity: 0; stroke: white; stroke-width: 15px;"/><rect x="189" y="554" width="212" height="132" class="djs-outline" style="fill: none;"/></g></g><g class="djs-group"><g class="djs-element djs-connection" data-element-id="Link_081wjql" style="display: block;"><g class="djs-visual"><path d="m  635,560L635,620 L395,620 L395,680 " style="fill: none; stroke-width: 2px; stroke: black; stroke-linejoin: round; marker-end: url('#-white-black-b3uq7l991ijkfmyoqrfugrway');"/></g><polyline points="635,560 635,620 395,620 395,680 " class="djs-hit djs-hit-stroke" style="fill: none; stroke-opacity: 0; stroke: white; stroke-width: 15px;"/><rect x="389" y="554" width="252" height="132" class="djs-outline" style="fill: none;"/></g></g><g class="djs-group"><g class="djs-element djs-connection" data-element-id="Link_1dt12zm" style="display: block;"><g class="djs-visual"><path d="m  395,680L395,620 L635,620 L635,560 " style="fill: none; stroke-width: 2px; stroke: black; stroke-linejoin: round; marker-end: url('#-white-black-b3uq7l991ijkfmyoqrfugrway');"/></g><polyline points="395,680 395,620 635,620 635,560 " class="djs-hit djs-hit-stroke" style="fill: none; stroke-opacity: 0; stroke: white; stroke-width: 15px;"/><rect x="389" y="554" width="252" height="132" class="djs-outline" style="fill: none;"/></g></g><g class="djs-group"><g class="djs-element djs-connection" data-element-id="Link_0ewfzaj" style="display: block;"><g class="djs-visual"><path d="m  560,515L490,515 " style="fill: none; stroke-width: 2px; stroke: black; stroke-linejoin: round; marker-end: url('#-white-black-b3uq7l991ijkfmyoqrfugrway');"/></g><polyline points="560,515 490,515 " class="djs-hit djs-hit-stroke" style="fill: none; stroke-opacity: 0; stroke: white; stroke-width: 15px;"/><rect x="484" y="509" width="82" height="12" class="djs-outline" style="fill: none;"/></g></g><g class="djs-group"><g class="djs-element djs-connection" data-element-id="Link_1xfhe0z" style="display: block;"><g class="djs-visual"><path d="m  270,515L340,515 " style="fill: none; stroke-width: 2px; stroke: black; stroke-linejoin: round; marker-end: url('#-white-black-b3uq7l991ijkfmyoqrfugrway');"/></g><polyline points="270,515 340,515 " class="djs-hit djs-hit-stroke" style="fill: none; stroke-opacity: 0; stroke: white; stroke-width: 15px;"/><rect x="264" y="509" width="82" height="12" class="djs-outline" style="fill: none;"/></g></g><g class="djs-group"><g class="djs-element djs-connection" data-element-id="Link_1vctwua" style="display: block;"><g class="djs-visual"><path d="m  500,325L690,325 " style="fill: none; stroke-width: 2px; stroke: black; stroke-linejoin: round; marker-end: url('#-white-black-b3uq7l991ijkfmyoqrfugrway');"/></g><polyline points="500,325 690,325 " class="djs-hit djs-hit-stroke" style="fill: none; stroke-opacity: 0; stroke: white; stroke-width: 15px;"/><rect x="494" y="319" width="202" height="12" class="djs-outline" style="fill: none;"/></g></g><g class="djs-group"><g class="djs-element djs-shape" data-element-id="Object_1pcaiku" style="display: block;" transform="matrix(1 0 0 1 290 280)"><g class="djs-visual"><rect x="0" y="0" width="210" height="90" rx="0" ry="0" style="stroke: black; stroke-width: 2px; fill: white; fill-opacity: 0.35;"/><polyline points="0,30 210,30 " style="fill: none; stroke: black; stroke-width: 2px;"/><text lineHeight="1.2" class="djs-label" style="font-family: 'IBM Plex', sans-serif; font-size: 16px; font-weight: normal;"><tspan x="72.921875" y="19.8">1:Person</tspan></text><text lineHeight="1.2" class="djs-label" style="font-family: 'IBM Plex', sans-serif; font-size: 16px; font-weight: normal;"><tspan x="11.3828125" y="64.8">name="Max Mustermann"</tspan></text></g><rect class="djs-hit djs-hit-all" x="0" y="0" width="210" height="90" style="fill: none; stroke-opacity: 0; stroke: white; stroke-width: 15px;"/><rect x="-6" y="-6" width="222" height="102" class="djs-outline" style="fill: none;"/></g></g><g class="djs-group"><g class="djs-element djs-shape" data-element-id="Object_00o4fid" style="display: block;" transform="matrix(1 0 0 1 305 680)"><g class="djs-visual"><rect x="0" y="0" width="180" height="90" rx="0" ry="0" style="stroke: black; stroke-width: 2px; fill: white; fill-opacity: 0.35;"/><polyline points="0,30 180,30 " style="fill: none; stroke: black; stroke-width: 2px;"/><text lineHeight="1.2" class="djs-label" style="font-family: 'IBM Plex', sans-serif; font-size: 16px; font-weight: normal;"><tspan x="64.3203125" y="19.8">1:Bank</tspan></text><text lineHeight="1.2" class="djs-label" style="font-family: 'IBM Plex', sans-serif; font-size: 16px; font-weight: normal;"><tspan x="18.4375" y="64.8">name="Pengebank"</tspan></text></g><rect class="djs-hit djs-hit-all" x="0" y="0" width="180" height="90" style="fill: none; stroke-opacity: 0; stroke: white; stroke-width: 15px;"/><rect x="-6" y="-6" width="192" height="102" class="djs-outline" style="fill: none;"/></g></g><g class="djs-group"><g class="djs-element djs-shape" data-element-id="Object_1hp9irm" style="display: block;" transform="matrix(1 0 0 1 340 470)"><g class="djs-visual"><rect x="0" y="0" width="150" height="90" rx="0" ry="0" style="stroke: black; stroke-width: 2px; fill: white; fill-opacity: 0.35;"/><polyline points="0,30 150,30 " style="fill: none; stroke: black; stroke-width: 2px;"/><text lineHeight="1.2" class="djs-label" style="font-family: 'IBM Plex', sans-serif; font-size: 16px; font-weight: normal;"><tspan x="38.875" y="19.8">1:Pincode</tspan></text><text lineHeight="1.2" class="djs-label" style="font-family: 'IBM Plex', sans-serif; font-size: 16px; font-weight: normal;"><tspan x="20.421875" y="55.2">pincode="123"</tspan><tspan x="44.84375" y="74.4">count=1</tspan></text></g><rect class="djs-hit djs-hit-all" x="0" y="0" width="150" height="90" style="fill: none; stroke-opacity: 0; stroke: white; stroke-width: 15px;"/><rect x="-6" y="-6" width="162" height="102" class="djs-outline" style="fill: none;"/></g></g><g class="djs-group"><g class="djs-element djs-shape" data-element-id="Object_0ohxl4c" style="display: block;" transform="matrix(1 0 0 1 560 470)"><g class="djs-visual"><rect x="0" y="0" width="150" height="90" rx="0" ry="0" style="stroke: black; stroke-width: 2px; fill: white; fill-opacity: 0.35;"/><polyline points="0,30 150,30 " style="fill: none; stroke: black; stroke-width: 2px;"/><text lineHeight="1.2" class="djs-label" style="font-family: 'IBM Plex', sans-serif; font-size: 16px; font-weight: normal;"><tspan x="29.390625" y="19.8">2:CreditCard</tspan></text><text lineHeight="1.2" class="djs-label" style="font-family: 'IBM Plex', sans-serif; font-size: 16px; font-weight: normal;"><tspan x="27.7578125" y="45.6">number=123</tspan><tspan x="36.921875" y="64.8">balance=1</tspan><tspan x="35.03125" y="84">limit=2000</tspan></text></g><rect class="djs-hit djs-hit-all" x="0" y="0" width="150" height="90" style="fill: none; stroke-opacity: 0; stroke: white; stroke-width: 15px;"/><rect x="-6" y="-6" width="162" height="102" class="djs-outline" style="fill: none;"/></g></g><g class="djs-group"><g class="djs-element djs-shape" data-element-id="Object_0bue4yb" style="display: block;" transform="matrix(1 0 0 1 690 280)"><g class="djs-visual"><rect x="0" y="0" width="185" height="90" rx="0" ry="0" style="stroke: black; stroke-width: 2px; fill: white; fill-opacity: 0.35;"/><polyline points="0,30 185,30 " style="fill: none; stroke: black; stroke-width: 2px;"/><text lineHeight="1.2" class="djs-label" style="font-family: 'IBM Plex', sans-serif; font-size: 16px; font-weight: normal;"><tspan x="60.453125" y="19.8">1:Adress</tspan></text><text lineHeight="1.2" class="djs-label" style="font-family: 'IBM Plex', sans-serif; font-size: 16px; font-weight: normal;"><tspan x="13.609375" y="55.2">street="Inndalsveien"</tspan><tspan x="50.0546875" y="74.4">number=28</tspan></text></g><rect class="djs-hit djs-hit-all" x="0" y="0" width="185" height="90" style="fill: none; stroke-opacity: 0; stroke: white; stroke-width: 15px;"/><rect x="-6" y="-6" width="197" height="102" class="djs-outline" style="fill: none;"/></g></g><g class="djs-group"><g class="djs-element djs-shape" data-element-id="Link_1128iwb_label" style="display: block;" transform="matrix(1 0 0 1 510 307)"><g class="djs-visual"><text lineHeight="1.2" class="djs-label" style="font-family: 'IBM Plex', sans-serif; font-size: 15px; font-weight: normal; fill: black;"><tspan x="0" y="13.5">owner</tspan></text></g><rect class="djs-hit djs-hit-all" x="0" y="0" width="43" height="18" style="fill: none; stroke-opacity: 0; stroke: white; stroke-width: 15px;"/><rect x="-6" y="-6" width="55" height="30" class="djs-outline" style="fill: none;"/></g></g><g class="djs-group"><g class="djs-element djs-shape" data-element-id="Link_1vctwua_label" style="display: block;" transform="matrix(1 0 0 1 630 307)"><g class="djs-visual"><text lineHeight="1.2" class="djs-label" style="font-family: 'IBM Plex', sans-serif; font-size: 15px; font-weight: normal; fill: black;"><tspan x="0" y="13.5">adress</tspan></text></g><rect class="djs-hit djs-hit-all" x="0" y="0" width="45" height="18" style="fill: none; stroke-opacity: 0; stroke: white; stroke-width: 15px;"/><rect x="-6" y="-6" width="57" height="30" class="djs-outline" style="fill: none;"/></g></g><g class="djs-group"><g class="djs-element djs-shape" data-element-id="Link_081wjql_label" style="display: block;" transform="matrix(1 0 0 1 410 650)"><g class="djs-visual"><text lineHeight="1.2" class="djs-label" style="font-family: 'IBM Plex', sans-serif; font-size: 15px; font-weight: normal; fill: black;"><tspan x="0" y="13.5">bank</tspan></text></g><rect class="djs-hit djs-hit-all" x="0" y="0" width="34" height="18" style="fill: none; stroke-opacity: 0; stroke: white; stroke-width: 15px;"/><rect x="-6" y="-6" width="46" height="30" class="djs-outline" style="fill: none;"/></g></g><g class="djs-group"><g class="djs-element djs-shape" data-element-id="Link_1dt12zm_label" style="display: block;" transform="matrix(1 0 0 1 560 570)"><g class="djs-visual"><text lineHeight="1.2" class="djs-label" style="font-family: 'IBM Plex', sans-serif; font-size: 15px; font-weight: normal; fill: black;"><tspan x="0" y="13.5">ownsCard</tspan></text></g><rect class="djs-hit djs-hit-all" x="0" y="0" width="68" height="18" style="fill: none; stroke-opacity: 0; stroke: white; stroke-width: 15px;"/><rect x="-6" y="-6" width="80" height="30" class="djs-outline" style="fill: none;"/></g></g><g class="djs-group"><g class="djs-element djs-shape" data-element-id="Link_0ewfzaj_label" style="display: block;" transform="matrix(1 0 0 1 515 497)"><g class="djs-visual"><text lineHeight="1.2" class="djs-label" style="font-family: 'IBM Plex', sans-serif; font-size: 15px; font-weight: normal; fill: black;"><tspan x="0" y="13.5">pin</tspan></text></g><rect class="djs-hit djs-hit-all" x="0" y="0" width="21" height="18" style="fill: none; stroke-opacity: 0; stroke: white; stroke-width: 15px;"/><rect x="-6" y="-6" width="33" height="30" class="djs-outline" style="fill: none;"/></g></g><g class="djs-group"><g class="djs-element djs-shape" data-element-id="Object_0916ill" style="display: block;" transform="matrix(1 0 0 1 120 470)"><g class="djs-visual"><rect x="0" y="0" width="150" height="90" rx="0" ry="0" style="stroke: black; stroke-width: 2px; fill: white; fill-opacity: 0.35;"/><polyline points="0,30 150,30 " style="fill: none; stroke: black; stroke-width: 2px;"/><text lineHeight="1.2" class="djs-label" style="font-family: 'IBM Plex', sans-serif; font-size: 16px; font-weight: normal;"><tspan x="29.390625" y="19.8">1:CreditCard</tspan></text><text lineHeight="1.2" class="djs-label" style="font-family: 'IBM Plex', sans-serif; font-size: 16px; font-weight: normal;"><tspan x="18.15625" y="45.6">number=12345</tspan><tspan x="19.53125" y="64.8">balance=-5000</tspan><tspan x="27.0390625" y="84">limit=-10000</tspan></text></g><rect class="djs-hit djs-hit-all" x="0" y="0" width="150" height="90" style="fill: none; stroke-opacity: 0; stroke: white; stroke-width: 15px;"/><rect x="-6" y="-6" width="162" height="102" class="djs-outline" style="fill: none;"/></g></g><g class="djs-group"><g class="djs-element djs-shape" data-element-id="Link_026clpl_label" style="display: block;" transform="matrix(1 0 0 1 200 570)"><g class="djs-visual"><text lineHeight="1.2" class="djs-label" style="font-family: 'IBM Plex', sans-serif; font-size: 15px; font-weight: normal; fill: black;"><tspan x="0" y="13.5">ownsCard</tspan></text></g><rect class="djs-hit djs-hit-all" x="0" y="0" width="68" height="18" style="fill: none; stroke-opacity: 0; stroke: white; stroke-width: 15px;"/><rect x="-6" y="-6" width="80" height="30" class="djs-outline" style="fill: none;"/></g></g><g class="djs-group"><g class="djs-element djs-shape" data-element-id="Link_0h87xxl_label" style="display: block;" transform="matrix(1 0 0 1 350 650)"><g class="djs-visual"><text lineHeight="1.2" class="djs-label" style="font-family: 'IBM Plex', sans-serif; font-size: 15px; font-weight: normal; fill: black;"><tspan x="0" y="13.5">bank</tspan></text></g><rect class="djs-hit djs-hit-all" x="0" y="0" width="34" height="18" style="fill: none; stroke-opacity: 0; stroke: white; stroke-width: 15px;"/><rect x="-6" y="-6" width="46" height="30" class="djs-outline" style="fill: none;"/></g></g><g class="djs-group"><g class="djs-element djs-shape" data-element-id="Link_1xfhe0z_label" style="display: block;" transform="matrix(1 0 0 1 295 497)"><g class="djs-visual"><text lineHeight="1.2" class="djs-label" style="font-family: 'IBM Plex', sans-serif; font-size: 15px; font-weight: normal; fill: black;"><tspan x="0" y="13.5">pin</tspan></text></g><rect class="djs-hit djs-hit-all" x="0" y="0" width="21" height="18" style="fill: none; stroke-opacity: 0; stroke: white; stroke-width: 15px;"/><rect x="-6" y="-6" width="33" height="30" class="djs-outline" style="fill: none;"/></g></g><g class="djs-group"><g class="djs-element djs-shape" data-element-id="Link_116g5xh_label" style="display: block;" transform="matrix(1 0 0 1 200 440)"><g class="djs-visual"><text lineHeight="1.2" class="djs-label" style="font-family: 'IBM Plex', sans-serif; font-size: 15px; font-weight: normal; fill: black;"><tspan x="0" y="13.5">card</tspan></text></g><rect class="djs-hit djs-hit-all" x="0" y="0" width="30" height="18" style="fill: none; stroke-opacity: 0; stroke: white; stroke-width: 15px;"/><rect x="-6" y="-6" width="42" height="30" class="djs-outline" style="fill: none;"/></g></g><g class="djs-group"><g class="djs-element djs-shape selected" data-element-id="Link_1hrc4i5_label" style="display: block;" transform="matrix(1 0 0 1 600 440)"><g class="djs-visual"><text lineHeight="1.2" class="djs-label" style="font-family: 'IBM Plex', sans-serif; font-size: 15px; font-weight: normal; fill: black;"><tspan x="0" y="13.5">card</tspan></text></g><rect class="djs-hit djs-hit-all" x="0" y="0" width="30" height="18" style="fill: none; stroke-opacity: 0; stroke: white; stroke-width: 15px;"/><rect x="-6" y="-6" width="42" height="30" class="djs-outline" style="fill: none;"/></g></g></svg>